<mxfile host="Electron" agent="Mozilla/5.0 (Windows NT 10.0; Win64; x64) AppleWebKit/537.36 (KHTML, like Gecko) draw.io/26.2.2 Chrome/134.0.6998.178 Electron/35.1.2 Safari/537.36" version="26.2.2">
  <diagram id="vcB4B8RN1yw_u2vGwvon" name="Page-2">
    <mxGraphModel dx="1629" dy="1343" grid="0" gridSize="10" guides="1" tooltips="1" connect="1" arrows="1" fold="1" page="0" pageScale="1" pageWidth="850" pageHeight="1100" math="0" shadow="0">
      <root>
        <mxCell id="0" />
        <mxCell id="1" parent="0" />
        <mxCell id="A7aOmcGS7sVbuuhgdiNV-22" value="SUPERVISE" style="rhombus;whiteSpace=wrap;html=1;" parent="1" vertex="1">
          <mxGeometry x="-92.75" y="-363" width="97.5" height="60" as="geometry" />
        </mxCell>
        <mxCell id="A7aOmcGS7sVbuuhgdiNV-29" value="DESIGNATE" style="rhombus;whiteSpace=wrap;html=1;" parent="1" vertex="1">
          <mxGeometry x="-37" y="155" width="130" height="60" as="geometry" />
        </mxCell>
        <mxCell id="A7aOmcGS7sVbuuhgdiNV-30" value="" style="endArrow=none;html=1;rounded=0;exitX=0.619;exitY=1.028;exitDx=0;exitDy=0;exitPerimeter=0;entryX=0.917;entryY=0.458;entryDx=0;entryDy=0;entryPerimeter=0;" parent="1" source="A7aOmcGS7sVbuuhgdiNV-1" edge="1" target="A7aOmcGS7sVbuuhgdiNV-29">
          <mxGeometry width="50" height="50" relative="1" as="geometry">
            <mxPoint x="128" y="222" as="sourcePoint" />
            <mxPoint x="96" y="181" as="targetPoint" />
          </mxGeometry>
        </mxCell>
        <mxCell id="A7aOmcGS7sVbuuhgdiNV-31" value="" style="endArrow=none;html=1;rounded=0;shape=link;entryX=0;entryY=0.5;entryDx=0;entryDy=0;exitX=0.5;exitY=1;exitDx=0;exitDy=0;" parent="1" source="A7aOmcGS7sVbuuhgdiNV-1" target="A7aOmcGS7sVbuuhgdiNV-29" edge="1">
          <mxGeometry width="50" height="50" relative="1" as="geometry">
            <mxPoint x="28" y="264" as="sourcePoint" />
            <mxPoint x="-478" y="556" as="targetPoint" />
            <Array as="points" />
          </mxGeometry>
        </mxCell>
        <mxCell id="A7aOmcGS7sVbuuhgdiNV-36" value="SERVICE" style="rounded=0;whiteSpace=wrap;html=1;" parent="1" vertex="1">
          <mxGeometry x="948" y="-15" width="120" height="40" as="geometry" />
        </mxCell>
        <mxCell id="A7aOmcGS7sVbuuhgdiNV-37" value="Description" style="ellipse;whiteSpace=wrap;html=1;" parent="1" vertex="1">
          <mxGeometry x="829" y="-10" width="80" height="25" as="geometry" />
        </mxCell>
        <mxCell id="A7aOmcGS7sVbuuhgdiNV-38" value="&lt;u&gt;ServiceId&lt;/u&gt;" style="ellipse;whiteSpace=wrap;html=1;" parent="1" vertex="1">
          <mxGeometry x="992.5" y="-95" width="80" height="25" as="geometry" />
        </mxCell>
        <mxCell id="A7aOmcGS7sVbuuhgdiNV-39" value="TechnologyId" style="ellipse;whiteSpace=wrap;html=1;" parent="1" vertex="1">
          <mxGeometry x="981" y="-166" width="80" height="25" as="geometry" />
        </mxCell>
        <mxCell id="A7aOmcGS7sVbuuhgdiNV-40" value="SubserviceId" style="ellipse;whiteSpace=wrap;html=1;" parent="1" vertex="1">
          <mxGeometry x="907" y="-123" width="80" height="25" as="geometry" />
        </mxCell>
        <mxCell id="A7aOmcGS7sVbuuhgdiNV-41" value="" style="endArrow=none;html=1;rounded=0;entryX=1;entryY=1;entryDx=0;entryDy=0;exitX=0;exitY=0.5;exitDx=0;exitDy=0;" parent="1" source="A7aOmcGS7sVbuuhgdiNV-36" target="A7aOmcGS7sVbuuhgdiNV-37" edge="1">
          <mxGeometry width="50" height="50" relative="1" as="geometry">
            <mxPoint x="730" y="180" as="sourcePoint" />
            <mxPoint x="700" y="290" as="targetPoint" />
          </mxGeometry>
        </mxCell>
        <mxCell id="A7aOmcGS7sVbuuhgdiNV-42" value="" style="endArrow=none;html=1;rounded=0;exitX=0.423;exitY=1.032;exitDx=0;exitDy=0;exitPerimeter=0;" parent="1" source="A7aOmcGS7sVbuuhgdiNV-39" edge="1">
          <mxGeometry width="50" height="50" relative="1" as="geometry">
            <mxPoint x="680" y="340" as="sourcePoint" />
            <mxPoint x="988" y="-20" as="targetPoint" />
            <Array as="points">
              <mxPoint x="983" y="-87" />
            </Array>
          </mxGeometry>
        </mxCell>
        <mxCell id="A7aOmcGS7sVbuuhgdiNV-43" value="" style="endArrow=none;html=1;rounded=0;exitX=0.761;exitY=0.887;exitDx=0;exitDy=0;exitPerimeter=0;entryX=0.25;entryY=0;entryDx=0;entryDy=0;" parent="1" source="A7aOmcGS7sVbuuhgdiNV-40" target="A7aOmcGS7sVbuuhgdiNV-36" edge="1">
          <mxGeometry width="50" height="50" relative="1" as="geometry">
            <mxPoint x="680" y="340" as="sourcePoint" />
            <mxPoint x="730" y="290" as="targetPoint" />
          </mxGeometry>
        </mxCell>
        <mxCell id="A7aOmcGS7sVbuuhgdiNV-44" value="" style="endArrow=none;html=1;rounded=0;exitX=0.383;exitY=0.938;exitDx=0;exitDy=0;exitPerimeter=0;entryX=0.426;entryY=-0.067;entryDx=0;entryDy=0;entryPerimeter=0;" parent="1" source="A7aOmcGS7sVbuuhgdiNV-38" target="A7aOmcGS7sVbuuhgdiNV-36" edge="1">
          <mxGeometry width="50" height="50" relative="1" as="geometry">
            <mxPoint x="680" y="340" as="sourcePoint" />
            <mxPoint x="730" y="290" as="targetPoint" />
          </mxGeometry>
        </mxCell>
        <mxCell id="A7aOmcGS7sVbuuhgdiNV-45" value="NoOfServices" style="ellipse;whiteSpace=wrap;html=1;dashed=1;dashPattern=8 8;" parent="1" vertex="1">
          <mxGeometry x="1061" y="-70" width="87" height="30" as="geometry" />
        </mxCell>
        <mxCell id="A7aOmcGS7sVbuuhgdiNV-46" value="" style="endArrow=none;html=1;rounded=0;exitX=0.943;exitY=0.035;exitDx=0;exitDy=0;exitPerimeter=0;entryX=0.5;entryY=1;entryDx=0;entryDy=0;" parent="1" source="A7aOmcGS7sVbuuhgdiNV-36" target="A7aOmcGS7sVbuuhgdiNV-45" edge="1">
          <mxGeometry width="50" height="50" relative="1" as="geometry">
            <mxPoint x="740" y="250" as="sourcePoint" />
            <mxPoint x="790" y="200" as="targetPoint" />
          </mxGeometry>
        </mxCell>
        <mxCell id="A7aOmcGS7sVbuuhgdiNV-47" value="SPECIAL_SERVICE" style="shape=ext;margin=3;double=1;whiteSpace=wrap;html=1;align=center;" parent="1" vertex="1">
          <mxGeometry x="487" y="642" width="130" height="40" as="geometry" />
        </mxCell>
        <mxCell id="A7aOmcGS7sVbuuhgdiNV-48" value="OrderId" style="ellipse;whiteSpace=wrap;html=1;" parent="1" vertex="1">
          <mxGeometry x="406" y="658" width="52" height="30" as="geometry" />
        </mxCell>
        <mxCell id="A7aOmcGS7sVbuuhgdiNV-49" value="&lt;u&gt;SpId&lt;/u&gt;" style="ellipse;whiteSpace=wrap;html=1;" parent="1" vertex="1">
          <mxGeometry x="458" y="722" width="49" height="20" as="geometry" />
        </mxCell>
        <mxCell id="A7aOmcGS7sVbuuhgdiNV-50" value="TechnologyId" style="ellipse;whiteSpace=wrap;html=1;" parent="1" vertex="1">
          <mxGeometry x="565" y="717" width="78" height="30" as="geometry" />
        </mxCell>
        <mxCell id="A7aOmcGS7sVbuuhgdiNV-51" value="SubserviceId" style="ellipse;whiteSpace=wrap;html=1;" parent="1" vertex="1">
          <mxGeometry x="645.5" y="655" width="80.5" height="30" as="geometry" />
        </mxCell>
        <mxCell id="A7aOmcGS7sVbuuhgdiNV-52" value="" style="endArrow=none;html=1;rounded=0;exitX=1;exitY=0;exitDx=0;exitDy=0;entryX=0.5;entryY=1;entryDx=0;entryDy=0;" parent="1" source="A7aOmcGS7sVbuuhgdiNV-49" target="A7aOmcGS7sVbuuhgdiNV-47" edge="1">
          <mxGeometry width="50" height="50" relative="1" as="geometry">
            <mxPoint x="660" y="490" as="sourcePoint" />
            <mxPoint x="710" y="440" as="targetPoint" />
          </mxGeometry>
        </mxCell>
        <mxCell id="A7aOmcGS7sVbuuhgdiNV-53" value="" style="endArrow=none;html=1;rounded=0;exitX=0.5;exitY=0;exitDx=0;exitDy=0;entryX=0.75;entryY=1;entryDx=0;entryDy=0;" parent="1" source="A7aOmcGS7sVbuuhgdiNV-50" target="A7aOmcGS7sVbuuhgdiNV-47" edge="1">
          <mxGeometry width="50" height="50" relative="1" as="geometry">
            <mxPoint x="660" y="490" as="sourcePoint" />
            <mxPoint x="710" y="440" as="targetPoint" />
          </mxGeometry>
        </mxCell>
        <mxCell id="A7aOmcGS7sVbuuhgdiNV-54" value="" style="endArrow=none;html=1;rounded=0;entryX=1;entryY=1;entryDx=0;entryDy=0;exitX=0;exitY=1;exitDx=0;exitDy=0;" parent="1" source="A7aOmcGS7sVbuuhgdiNV-47" target="A7aOmcGS7sVbuuhgdiNV-48" edge="1">
          <mxGeometry width="50" height="50" relative="1" as="geometry">
            <mxPoint x="740" y="490" as="sourcePoint" />
            <mxPoint x="710" y="440" as="targetPoint" />
          </mxGeometry>
        </mxCell>
        <mxCell id="A7aOmcGS7sVbuuhgdiNV-55" value="" style="endArrow=none;html=1;rounded=0;exitX=1;exitY=0.5;exitDx=0;exitDy=0;" parent="1" source="A7aOmcGS7sVbuuhgdiNV-47" target="A7aOmcGS7sVbuuhgdiNV-51" edge="1">
          <mxGeometry width="50" height="50" relative="1" as="geometry">
            <mxPoint x="660" y="490" as="sourcePoint" />
            <mxPoint x="710" y="440" as="targetPoint" />
          </mxGeometry>
        </mxCell>
        <mxCell id="A7aOmcGS7sVbuuhgdiNV-56" value="ENTITLE" style="shape=rhombus;double=1;perimeter=rhombusPerimeter;whiteSpace=wrap;html=1;align=center;" parent="1" vertex="1">
          <mxGeometry x="352" y="474" width="120" height="60" as="geometry" />
        </mxCell>
        <mxCell id="A7aOmcGS7sVbuuhgdiNV-58" value="ORDER" style="rounded=0;whiteSpace=wrap;html=1;" parent="1" vertex="1">
          <mxGeometry x="598" y="378" width="130" height="30" as="geometry" />
        </mxCell>
        <mxCell id="A7aOmcGS7sVbuuhgdiNV-59" value="&lt;u&gt;OrderId&lt;/u&gt;" style="ellipse;whiteSpace=wrap;html=1;" parent="1" vertex="1">
          <mxGeometry x="617" y="495" width="64" height="30" as="geometry" />
        </mxCell>
        <mxCell id="A7aOmcGS7sVbuuhgdiNV-62" value="Review" style="ellipse;whiteSpace=wrap;html=1;" parent="1" vertex="1">
          <mxGeometry x="701" y="425.5" width="57" height="30" as="geometry" />
        </mxCell>
        <mxCell id="A7aOmcGS7sVbuuhgdiNV-63" value="ServiceId" style="ellipse;whiteSpace=wrap;html=1;" parent="1" vertex="1">
          <mxGeometry x="781" y="362.5" width="64" height="30" as="geometry" />
        </mxCell>
        <mxCell id="A7aOmcGS7sVbuuhgdiNV-64" value="UserId" style="ellipse;whiteSpace=wrap;html=1;" parent="1" vertex="1">
          <mxGeometry x="723.5" y="470" width="53.5" height="30" as="geometry" />
        </mxCell>
        <mxCell id="A7aOmcGS7sVbuuhgdiNV-65" value="EmployeeId" style="ellipse;whiteSpace=wrap;html=1;" parent="1" vertex="1">
          <mxGeometry x="814" y="408" width="78" height="30" as="geometry" />
        </mxCell>
        <mxCell id="A7aOmcGS7sVbuuhgdiNV-66" value="" style="endArrow=none;html=1;rounded=0;exitX=0.624;exitY=0.007;exitDx=0;exitDy=0;entryX=0.337;entryY=1.007;entryDx=0;entryDy=0;entryPerimeter=0;exitPerimeter=0;" parent="1" source="A7aOmcGS7sVbuuhgdiNV-59" target="A7aOmcGS7sVbuuhgdiNV-58" edge="1">
          <mxGeometry width="50" height="50" relative="1" as="geometry">
            <mxPoint x="670" y="650" as="sourcePoint" />
            <mxPoint x="790" y="810" as="targetPoint" />
          </mxGeometry>
        </mxCell>
        <mxCell id="A7aOmcGS7sVbuuhgdiNV-67" value="" style="endArrow=none;html=1;rounded=0;exitX=0;exitY=0.5;exitDx=0;exitDy=0;" parent="1" source="A7aOmcGS7sVbuuhgdiNV-64" edge="1">
          <mxGeometry width="50" height="50" relative="1" as="geometry">
            <mxPoint x="670" y="650" as="sourcePoint" />
            <mxPoint x="657" y="408" as="targetPoint" />
          </mxGeometry>
        </mxCell>
        <mxCell id="A7aOmcGS7sVbuuhgdiNV-68" value="" style="endArrow=none;html=1;rounded=0;entryX=0.911;entryY=0.969;entryDx=0;entryDy=0;entryPerimeter=0;exitX=0;exitY=0.5;exitDx=0;exitDy=0;" parent="1" source="A7aOmcGS7sVbuuhgdiNV-65" target="A7aOmcGS7sVbuuhgdiNV-58" edge="1">
          <mxGeometry width="50" height="50" relative="1" as="geometry">
            <mxPoint x="674" y="359" as="sourcePoint" />
            <mxPoint x="720" y="600" as="targetPoint" />
          </mxGeometry>
        </mxCell>
        <mxCell id="A7aOmcGS7sVbuuhgdiNV-69" value="" style="endArrow=none;html=1;rounded=0;exitX=0;exitY=0.5;exitDx=0;exitDy=0;entryX=1;entryY=0.5;entryDx=0;entryDy=0;" parent="1" source="A7aOmcGS7sVbuuhgdiNV-63" target="A7aOmcGS7sVbuuhgdiNV-58" edge="1">
          <mxGeometry width="50" height="50" relative="1" as="geometry">
            <mxPoint x="670" y="650" as="sourcePoint" />
            <mxPoint x="720" y="600" as="targetPoint" />
          </mxGeometry>
        </mxCell>
        <mxCell id="A7aOmcGS7sVbuuhgdiNV-72" value="" style="endArrow=none;html=1;rounded=0;exitX=0;exitY=0.5;exitDx=0;exitDy=0;entryX=0.5;entryY=1;entryDx=0;entryDy=0;" parent="1" source="A7aOmcGS7sVbuuhgdiNV-62" target="A7aOmcGS7sVbuuhgdiNV-58" edge="1">
          <mxGeometry width="50" height="50" relative="1" as="geometry">
            <mxPoint x="670" y="650" as="sourcePoint" />
            <mxPoint x="720" y="600" as="targetPoint" />
          </mxGeometry>
        </mxCell>
        <mxCell id="A7aOmcGS7sVbuuhgdiNV-74" value="" style="endArrow=none;html=1;rounded=0;entryX=0.838;entryY=0.33;entryDx=0;entryDy=0;exitX=0;exitY=1;exitDx=0;exitDy=0;entryPerimeter=0;" parent="1" source="A7aOmcGS7sVbuuhgdiNV-58" target="A7aOmcGS7sVbuuhgdiNV-56" edge="1">
          <mxGeometry width="50" height="50" relative="1" as="geometry">
            <mxPoint x="540" y="660" as="sourcePoint" />
            <mxPoint x="590" y="610" as="targetPoint" />
          </mxGeometry>
        </mxCell>
        <mxCell id="A7aOmcGS7sVbuuhgdiNV-81" value="" style="endArrow=none;html=1;rounded=0;entryX=0;entryY=0.5;entryDx=0;entryDy=0;exitX=1;exitY=1;exitDx=0;exitDy=0;" parent="1" source="A7aOmcGS7sVbuuhgdiNV-1" target="A7aOmcGS7sVbuuhgdiNV-87" edge="1">
          <mxGeometry width="50" height="50" relative="1" as="geometry">
            <mxPoint x="5" y="2" as="sourcePoint" />
            <mxPoint x="410" y="159.9999999999999" as="targetPoint" />
          </mxGeometry>
        </mxCell>
        <mxCell id="A7aOmcGS7sVbuuhgdiNV-82" value="" style="endArrow=none;html=1;rounded=0;exitX=1;exitY=0.5;exitDx=0;exitDy=0;shape=link;entryX=0.25;entryY=0;entryDx=0;entryDy=0;" parent="1" source="A7aOmcGS7sVbuuhgdiNV-87" target="A7aOmcGS7sVbuuhgdiNV-58" edge="1">
          <mxGeometry width="50" height="50" relative="1" as="geometry">
            <mxPoint x="530" y="159.9999999999999" as="sourcePoint" />
            <mxPoint x="820" y="820" as="targetPoint" />
          </mxGeometry>
        </mxCell>
        <mxCell id="A7aOmcGS7sVbuuhgdiNV-83" value="1, M" style="text;html=1;align=center;verticalAlign=middle;resizable=0;points=[];autosize=1;strokeColor=none;fillColor=none;" parent="1" vertex="1">
          <mxGeometry x="344" y="122" width="41" height="26" as="geometry" />
        </mxCell>
        <mxCell id="A7aOmcGS7sVbuuhgdiNV-84" value="1, M" style="text;html=1;align=center;verticalAlign=middle;resizable=0;points=[];autosize=1;strokeColor=none;fillColor=none;" parent="1" vertex="1">
          <mxGeometry x="460" y="120" width="41" height="26" as="geometry" />
        </mxCell>
        <mxCell id="A7aOmcGS7sVbuuhgdiNV-85" value="PlacingCustomer" style="text;html=1;align=center;verticalAlign=middle;resizable=0;points=[];autosize=1;strokeColor=none;fillColor=none;rotation=0;" parent="1" vertex="1">
          <mxGeometry x="285" y="99" width="109" height="26" as="geometry" />
        </mxCell>
        <mxCell id="A7aOmcGS7sVbuuhgdiNV-87" value="PLACES" style="rhombus;whiteSpace=wrap;html=1;" parent="1" vertex="1">
          <mxGeometry x="366" y="125" width="115" height="52.5" as="geometry" />
        </mxCell>
        <mxCell id="A7aOmcGS7sVbuuhgdiNV-92" value="" style="endArrow=none;html=1;rounded=0;entryX=0;entryY=0.5;entryDx=0;entryDy=0;exitX=1;exitY=0.5;exitDx=0;exitDy=0;" parent="1" source="A7aOmcGS7sVbuuhgdiNV-1" target="JgC_NQqmbrPLCzXk95Wa-1" edge="1">
          <mxGeometry width="50" height="50" relative="1" as="geometry">
            <mxPoint x="111.00000000000023" y="-81" as="sourcePoint" />
            <mxPoint x="540.5" y="95" as="targetPoint" />
            <Array as="points" />
          </mxGeometry>
        </mxCell>
        <mxCell id="A7aOmcGS7sVbuuhgdiNV-98" value="Rank" style="ellipse;whiteSpace=wrap;html=1;" parent="1" vertex="1">
          <mxGeometry x="114" y="193" width="66" height="22" as="geometry" />
        </mxCell>
        <mxCell id="A7aOmcGS7sVbuuhgdiNV-100" value="PAY" style="rhombus;whiteSpace=wrap;html=1;" parent="1" vertex="1">
          <mxGeometry x="179" y="692" width="65" height="37" as="geometry" />
        </mxCell>
        <mxCell id="A7aOmcGS7sVbuuhgdiNV-109" value="WORKS_ON" style="rhombus;whiteSpace=wrap;html=1;" parent="1" vertex="1">
          <mxGeometry x="356" y="333" width="120" height="40" as="geometry" />
        </mxCell>
        <mxCell id="A7aOmcGS7sVbuuhgdiNV-111" value="" style="endArrow=none;html=1;rounded=0;exitX=1;exitY=0.5;exitDx=0;exitDy=0;entryX=0;entryY=0.25;entryDx=0;entryDy=0;shape=link;" parent="1" source="A7aOmcGS7sVbuuhgdiNV-109" target="A7aOmcGS7sVbuuhgdiNV-58" edge="1">
          <mxGeometry width="50" height="50" relative="1" as="geometry">
            <mxPoint x="510" y="730" as="sourcePoint" />
            <mxPoint x="560" y="680" as="targetPoint" />
            <Array as="points" />
          </mxGeometry>
        </mxCell>
        <mxCell id="A7aOmcGS7sVbuuhgdiNV-116" value="CONTAINS" style="rhombus;whiteSpace=wrap;html=1;" parent="1" vertex="1">
          <mxGeometry x="852.5" y="170" width="140" height="40" as="geometry" />
        </mxCell>
        <mxCell id="A7aOmcGS7sVbuuhgdiNV-117" value="" style="endArrow=none;html=1;rounded=0;entryX=0;entryY=0.5;entryDx=0;entryDy=0;exitX=1;exitY=0;exitDx=0;exitDy=0;shape=link;" parent="1" source="A7aOmcGS7sVbuuhgdiNV-58" target="A7aOmcGS7sVbuuhgdiNV-116" edge="1">
          <mxGeometry width="50" height="50" relative="1" as="geometry">
            <mxPoint x="1120" y="560" as="sourcePoint" />
            <mxPoint x="1170" y="510" as="targetPoint" />
            <Array as="points" />
          </mxGeometry>
        </mxCell>
        <mxCell id="A7aOmcGS7sVbuuhgdiNV-118" value="" style="endArrow=none;html=1;rounded=0;entryX=0.5;entryY=0;entryDx=0;entryDy=0;exitX=0;exitY=1;exitDx=0;exitDy=0;" parent="1" source="A7aOmcGS7sVbuuhgdiNV-36" target="A7aOmcGS7sVbuuhgdiNV-116" edge="1">
          <mxGeometry width="50" height="50" relative="1" as="geometry">
            <mxPoint x="1120" y="490" as="sourcePoint" />
            <mxPoint x="1170" y="440" as="targetPoint" />
          </mxGeometry>
        </mxCell>
        <mxCell id="A7aOmcGS7sVbuuhgdiNV-123" value="TECHNOLOGY" style="rounded=0;whiteSpace=wrap;html=1;" parent="1" vertex="1">
          <mxGeometry x="1250" y="190" width="100" height="30" as="geometry" />
        </mxCell>
        <mxCell id="A7aOmcGS7sVbuuhgdiNV-124" value="&lt;u&gt;TechId&lt;/u&gt;" style="ellipse;whiteSpace=wrap;html=1;" parent="1" vertex="1">
          <mxGeometry x="1320" y="148" width="64" height="30" as="geometry" />
        </mxCell>
        <mxCell id="A7aOmcGS7sVbuuhgdiNV-125" value="NoOfTechnologies" style="ellipse;whiteSpace=wrap;html=1;dashed=1;dashPattern=12 12;" parent="1" vertex="1">
          <mxGeometry x="1199" y="255" width="120" height="30" as="geometry" />
        </mxCell>
        <mxCell id="A7aOmcGS7sVbuuhgdiNV-126" value="Description" style="ellipse;whiteSpace=wrap;html=1;" parent="1" vertex="1">
          <mxGeometry x="1383" y="205" width="72" height="26" as="geometry" />
        </mxCell>
        <mxCell id="A7aOmcGS7sVbuuhgdiNV-127" value="" style="endArrow=none;html=1;rounded=0;entryX=0;entryY=0.5;entryDx=0;entryDy=0;exitX=0.25;exitY=0;exitDx=0;exitDy=0;" parent="1" source="A7aOmcGS7sVbuuhgdiNV-123" target="A7aOmcGS7sVbuuhgdiNV-124" edge="1">
          <mxGeometry width="50" height="50" relative="1" as="geometry">
            <mxPoint x="1530" y="490" as="sourcePoint" />
            <mxPoint x="1580" y="440" as="targetPoint" />
          </mxGeometry>
        </mxCell>
        <mxCell id="A7aOmcGS7sVbuuhgdiNV-128" value="" style="endArrow=none;html=1;rounded=0;entryX=0.293;entryY=-0.047;entryDx=0;entryDy=0;entryPerimeter=0;exitX=0.306;exitY=1.082;exitDx=0;exitDy=0;exitPerimeter=0;" parent="1" source="A7aOmcGS7sVbuuhgdiNV-123" target="A7aOmcGS7sVbuuhgdiNV-125" edge="1">
          <mxGeometry width="50" height="50" relative="1" as="geometry">
            <mxPoint x="1530" y="490" as="sourcePoint" />
            <mxPoint x="1580" y="440" as="targetPoint" />
          </mxGeometry>
        </mxCell>
        <mxCell id="A7aOmcGS7sVbuuhgdiNV-129" value="" style="endArrow=none;html=1;rounded=0;exitX=1;exitY=0.25;exitDx=0;exitDy=0;entryX=0;entryY=1;entryDx=0;entryDy=0;" parent="1" source="A7aOmcGS7sVbuuhgdiNV-123" target="A7aOmcGS7sVbuuhgdiNV-126" edge="1">
          <mxGeometry width="50" height="50" relative="1" as="geometry">
            <mxPoint x="1530" y="490" as="sourcePoint" />
            <mxPoint x="1580" y="440" as="targetPoint" />
          </mxGeometry>
        </mxCell>
        <mxCell id="A7aOmcGS7sVbuuhgdiNV-130" value="INCLUDES" style="rhombus;whiteSpace=wrap;html=1;" parent="1" vertex="1">
          <mxGeometry x="1288" y="-12" width="100" height="47" as="geometry" />
        </mxCell>
        <mxCell id="A7aOmcGS7sVbuuhgdiNV-131" value="" style="endArrow=none;html=1;rounded=0;entryX=1;entryY=0.5;entryDx=0;entryDy=0;shape=link;exitX=0;exitY=0.5;exitDx=0;exitDy=0;" parent="1" source="A7aOmcGS7sVbuuhgdiNV-130" target="A7aOmcGS7sVbuuhgdiNV-36" edge="1">
          <mxGeometry width="50" height="50" relative="1" as="geometry">
            <mxPoint x="1330" y="460" as="sourcePoint" />
            <mxPoint x="1380" y="410" as="targetPoint" />
          </mxGeometry>
        </mxCell>
        <mxCell id="A7aOmcGS7sVbuuhgdiNV-132" value="" style="endArrow=none;html=1;rounded=0;entryX=0.5;entryY=1;entryDx=0;entryDy=0;exitX=0;exitY=0.25;exitDx=0;exitDy=0;" parent="1" source="A7aOmcGS7sVbuuhgdiNV-123" target="A7aOmcGS7sVbuuhgdiNV-130" edge="1">
          <mxGeometry width="50" height="50" relative="1" as="geometry">
            <mxPoint x="1330" y="460" as="sourcePoint" />
            <mxPoint x="1380" y="410" as="targetPoint" />
          </mxGeometry>
        </mxCell>
        <mxCell id="A7aOmcGS7sVbuuhgdiNV-137" value="SUB_SERVICE" style="shape=ext;margin=3;double=1;whiteSpace=wrap;html=1;align=center;" parent="1" vertex="1">
          <mxGeometry x="1085" y="531" width="100" height="40" as="geometry" />
        </mxCell>
        <mxCell id="A7aOmcGS7sVbuuhgdiNV-138" value="SubserviceId" style="ellipse;whiteSpace=wrap;html=1;" parent="1" vertex="1">
          <mxGeometry x="1154" y="465" width="79" height="30" as="geometry" />
        </mxCell>
        <mxCell id="A7aOmcGS7sVbuuhgdiNV-139" value="NoOfSubservices" style="ellipse;whiteSpace=wrap;html=1;dashed=1;dashPattern=12 12;" parent="1" vertex="1">
          <mxGeometry x="1245" y="485" width="110" height="26" as="geometry" />
        </mxCell>
        <mxCell id="A7aOmcGS7sVbuuhgdiNV-140" value="" style="endArrow=none;html=1;rounded=0;exitX=0.267;exitY=0.989;exitDx=0;exitDy=0;exitPerimeter=0;entryX=0.5;entryY=0;entryDx=0;entryDy=0;" parent="1" source="A7aOmcGS7sVbuuhgdiNV-138" target="A7aOmcGS7sVbuuhgdiNV-137" edge="1">
          <mxGeometry width="50" height="50" relative="1" as="geometry">
            <mxPoint x="1550" y="570" as="sourcePoint" />
            <mxPoint x="1600" y="520" as="targetPoint" />
          </mxGeometry>
        </mxCell>
        <mxCell id="A7aOmcGS7sVbuuhgdiNV-141" value="" style="endArrow=none;html=1;rounded=0;exitX=0.407;exitY=1.078;exitDx=0;exitDy=0;exitPerimeter=0;entryX=1;entryY=0.5;entryDx=0;entryDy=0;" parent="1" source="A7aOmcGS7sVbuuhgdiNV-139" target="A7aOmcGS7sVbuuhgdiNV-137" edge="1">
          <mxGeometry width="50" height="50" relative="1" as="geometry">
            <mxPoint x="1550" y="570" as="sourcePoint" />
            <mxPoint x="1600" y="520" as="targetPoint" />
          </mxGeometry>
        </mxCell>
        <mxCell id="A7aOmcGS7sVbuuhgdiNV-142" value="TechnologyId" style="ellipse;whiteSpace=wrap;html=1;" parent="1" vertex="1">
          <mxGeometry x="1068" y="620" width="81" height="30" as="geometry" />
        </mxCell>
        <mxCell id="A7aOmcGS7sVbuuhgdiNV-143" value="" style="endArrow=none;html=1;rounded=0;exitX=0.5;exitY=0;exitDx=0;exitDy=0;entryX=0.5;entryY=1;entryDx=0;entryDy=0;" parent="1" source="A7aOmcGS7sVbuuhgdiNV-142" target="A7aOmcGS7sVbuuhgdiNV-137" edge="1">
          <mxGeometry width="50" height="50" relative="1" as="geometry">
            <mxPoint x="1550" y="670" as="sourcePoint" />
            <mxPoint x="1600" y="620" as="targetPoint" />
          </mxGeometry>
        </mxCell>
        <mxCell id="A7aOmcGS7sVbuuhgdiNV-144" value="PROVIDE" style="shape=rhombus;double=1;perimeter=rhombusPerimeter;whiteSpace=wrap;html=1;align=center;" parent="1" vertex="1">
          <mxGeometry x="957" y="303" width="120" height="60" as="geometry" />
        </mxCell>
        <mxCell id="A7aOmcGS7sVbuuhgdiNV-145" value="" style="endArrow=none;html=1;rounded=0;exitX=1;exitY=1;exitDx=0;exitDy=0;entryX=0.5;entryY=0;entryDx=0;entryDy=0;" parent="1" source="A7aOmcGS7sVbuuhgdiNV-36" target="A7aOmcGS7sVbuuhgdiNV-144" edge="1">
          <mxGeometry width="50" height="50" relative="1" as="geometry">
            <mxPoint x="1480" y="380" as="sourcePoint" />
            <mxPoint x="1530" y="330" as="targetPoint" />
          </mxGeometry>
        </mxCell>
        <mxCell id="A7aOmcGS7sVbuuhgdiNV-146" value="" style="endArrow=none;html=1;rounded=0;entryX=0.5;entryY=1;entryDx=0;entryDy=0;exitX=0;exitY=0;exitDx=0;exitDy=0;shape=link;" parent="1" source="A7aOmcGS7sVbuuhgdiNV-137" target="A7aOmcGS7sVbuuhgdiNV-144" edge="1">
          <mxGeometry width="50" height="50" relative="1" as="geometry">
            <mxPoint x="1480" y="620" as="sourcePoint" />
            <mxPoint x="1530" y="570" as="targetPoint" />
          </mxGeometry>
        </mxCell>
        <mxCell id="A7aOmcGS7sVbuuhgdiNV-151" value="Role" style="ellipse;whiteSpace=wrap;html=1;" parent="1" vertex="1">
          <mxGeometry x="-183" y="61" width="52" height="27" as="geometry" />
        </mxCell>
        <mxCell id="A7aOmcGS7sVbuuhgdiNV-170" value="" style="endArrow=none;html=1;rounded=0;fontSize=12;startSize=8;endSize=8;curved=1;exitX=1;exitY=0.5;exitDx=0;exitDy=0;entryX=0.5;entryY=0;entryDx=0;entryDy=0;" parent="1" source="JgC_NQqmbrPLCzXk95Wa-1" target="A7aOmcGS7sVbuuhgdiNV-58" edge="1">
          <mxGeometry relative="1" as="geometry">
            <mxPoint x="680.5" y="95" as="sourcePoint" />
            <mxPoint x="819" y="234" as="targetPoint" />
          </mxGeometry>
        </mxCell>
        <mxCell id="A7aOmcGS7sVbuuhgdiNV-175" value="" style="shape=link;html=1;rounded=0;fontSize=12;startSize=8;endSize=8;curved=1;exitX=0.5;exitY=1;exitDx=0;exitDy=0;entryX=0;entryY=0.5;entryDx=0;entryDy=0;" parent="1" source="A7aOmcGS7sVbuuhgdiNV-56" target="A7aOmcGS7sVbuuhgdiNV-47" edge="1">
          <mxGeometry width="100" relative="1" as="geometry">
            <mxPoint x="839" y="378" as="sourcePoint" />
            <mxPoint x="939" y="378" as="targetPoint" />
          </mxGeometry>
        </mxCell>
        <mxCell id="A7aOmcGS7sVbuuhgdiNV-178" value="PayingCustomer" style="text;html=1;align=center;verticalAlign=middle;resizable=0;points=[];autosize=1;strokeColor=none;fillColor=none;fontSize=16;" parent="1" vertex="1">
          <mxGeometry x="43" y="629" width="136" height="31" as="geometry" />
        </mxCell>
        <mxCell id="A7aOmcGS7sVbuuhgdiNV-179" value="Paid" style="text;html=1;align=center;verticalAlign=middle;resizable=0;points=[];autosize=1;strokeColor=none;fillColor=none;fontSize=16;rotation=0;" parent="1" vertex="1">
          <mxGeometry x="255.5" y="754" width="50" height="31" as="geometry" />
        </mxCell>
        <mxCell id="A7aOmcGS7sVbuuhgdiNV-184" value="1, 1" style="text;html=1;align=center;verticalAlign=middle;resizable=0;points=[];autosize=1;strokeColor=none;fillColor=none;fontSize=16;" parent="1" vertex="1">
          <mxGeometry x="524" y="56" width="45" height="31" as="geometry" />
        </mxCell>
        <mxCell id="A7aOmcGS7sVbuuhgdiNV-186" value="ReviewingCustomer" style="text;html=1;align=center;verticalAlign=middle;resizable=0;points=[];autosize=1;strokeColor=none;fillColor=none;fontSize=16;rotation=0;" parent="1" vertex="1">
          <mxGeometry x="417" y="39" width="161" height="31" as="geometry" />
        </mxCell>
        <mxCell id="A7aOmcGS7sVbuuhgdiNV-191" value="1, M" style="text;html=1;align=center;verticalAlign=middle;resizable=0;points=[];autosize=1;strokeColor=none;fillColor=none;fontSize=16;" parent="1" vertex="1">
          <mxGeometry x="821" y="154" width="49" height="31" as="geometry" />
        </mxCell>
        <mxCell id="A7aOmcGS7sVbuuhgdiNV-194" value="1, M" style="text;html=1;align=center;verticalAlign=middle;resizable=0;points=[];autosize=1;strokeColor=none;fillColor=none;fontSize=16;" parent="1" vertex="1">
          <mxGeometry x="920" y="141" width="49" height="31" as="geometry" />
        </mxCell>
        <mxCell id="A7aOmcGS7sVbuuhgdiNV-196" value="Provider" style="text;html=1;align=center;verticalAlign=middle;resizable=0;points=[];autosize=1;strokeColor=none;fillColor=none;fontSize=16;rotation=0;" parent="1" vertex="1">
          <mxGeometry x="1035" y="241" width="78" height="31" as="geometry" />
        </mxCell>
        <mxCell id="A7aOmcGS7sVbuuhgdiNV-197" value="Provided" style="text;html=1;align=center;verticalAlign=middle;resizable=0;points=[];autosize=1;strokeColor=none;fillColor=none;fontSize=16;rotation=0;" parent="1" vertex="1">
          <mxGeometry x="1043" y="368.5" width="81" height="31" as="geometry" />
        </mxCell>
        <mxCell id="A7aOmcGS7sVbuuhgdiNV-198" value="1, M" style="text;html=1;align=center;verticalAlign=middle;resizable=0;points=[];autosize=1;strokeColor=none;fillColor=none;fontSize=16;" parent="1" vertex="1">
          <mxGeometry x="1013" y="282" width="49" height="31" as="geometry" />
        </mxCell>
        <mxCell id="A7aOmcGS7sVbuuhgdiNV-199" value="1, M" style="text;html=1;align=center;verticalAlign=middle;resizable=0;points=[];autosize=1;strokeColor=none;fillColor=none;fontSize=16;" parent="1" vertex="1">
          <mxGeometry x="971" y="362" width="49" height="31" as="geometry" />
        </mxCell>
        <mxCell id="A7aOmcGS7sVbuuhgdiNV-201" value="Includer" style="text;html=1;align=center;verticalAlign=middle;resizable=0;points=[];autosize=1;strokeColor=none;fillColor=none;fontSize=16;" parent="1" vertex="1">
          <mxGeometry x="1199" y="-31" width="75" height="31" as="geometry" />
        </mxCell>
        <mxCell id="A7aOmcGS7sVbuuhgdiNV-202" value="1, M" style="text;html=1;align=center;verticalAlign=middle;resizable=0;points=[];autosize=1;strokeColor=none;fillColor=none;fontSize=16;" parent="1" vertex="1">
          <mxGeometry x="1271" y="-28" width="49" height="31" as="geometry" />
        </mxCell>
        <mxCell id="A7aOmcGS7sVbuuhgdiNV-212" value="WorkedOn" style="text;html=1;align=center;verticalAlign=middle;resizable=0;points=[];autosize=1;strokeColor=none;fillColor=none;fontSize=16;rotation=0;" parent="1" vertex="1">
          <mxGeometry x="477" y="326" width="94" height="31" as="geometry" />
        </mxCell>
        <mxCell id="A7aOmcGS7sVbuuhgdiNV-213" value="1, M" style="text;html=1;align=center;verticalAlign=middle;resizable=0;points=[];autosize=1;strokeColor=none;fillColor=none;fontSize=16;" parent="1" vertex="1">
          <mxGeometry x="440.5" y="316" width="49" height="31" as="geometry" />
        </mxCell>
        <mxCell id="A7aOmcGS7sVbuuhgdiNV-214" value="1, M" style="text;html=1;align=center;verticalAlign=middle;resizable=0;points=[];autosize=1;strokeColor=none;fillColor=none;fontSize=16;" parent="1" vertex="1">
          <mxGeometry x="349" y="311" width="49" height="31" as="geometry" />
        </mxCell>
        <mxCell id="A7aOmcGS7sVbuuhgdiNV-215" value="WorkingEmployee" style="text;html=1;align=center;verticalAlign=middle;resizable=0;points=[];autosize=1;strokeColor=none;fillColor=none;fontSize=16;rotation=0;" parent="1" vertex="1">
          <mxGeometry x="339" y="280" width="148" height="31" as="geometry" />
        </mxCell>
        <mxCell id="A7aOmcGS7sVbuuhgdiNV-216" value="EntitingEmployee" style="text;html=1;align=center;verticalAlign=middle;resizable=0;points=[];autosize=1;strokeColor=none;fillColor=none;fontSize=16;rotation=0;" parent="1" vertex="1">
          <mxGeometry x="209" y="503" width="143" height="31" as="geometry" />
        </mxCell>
        <mxCell id="A7aOmcGS7sVbuuhgdiNV-217" value="ToEntitle" style="text;html=1;align=center;verticalAlign=middle;resizable=0;points=[];autosize=1;strokeColor=none;fillColor=none;fontSize=16;rotation=0;" parent="1" vertex="1">
          <mxGeometry x="440.5" y="546" width="79" height="31" as="geometry" />
        </mxCell>
        <mxCell id="A7aOmcGS7sVbuuhgdiNV-218" value="1, M" style="text;html=1;align=center;verticalAlign=middle;resizable=0;points=[];autosize=1;strokeColor=none;fillColor=none;fontSize=16;" parent="1" vertex="1">
          <mxGeometry x="413" y="459" width="49" height="31" as="geometry" />
        </mxCell>
        <mxCell id="A7aOmcGS7sVbuuhgdiNV-219" value="1, 1" style="text;html=1;align=center;verticalAlign=middle;resizable=0;points=[];autosize=1;strokeColor=none;fillColor=none;fontSize=16;" parent="1" vertex="1">
          <mxGeometry x="360" y="527" width="45" height="31" as="geometry" />
        </mxCell>
        <mxCell id="A7aOmcGS7sVbuuhgdiNV-220" value="1, M" style="text;html=1;align=center;verticalAlign=middle;resizable=0;points=[];autosize=1;strokeColor=none;fillColor=none;fontSize=16;" parent="1" vertex="1">
          <mxGeometry x="336" y="465" width="49" height="31" as="geometry" />
        </mxCell>
        <mxCell id="A7aOmcGS7sVbuuhgdiNV-221" value="Entitled" style="text;html=1;align=center;verticalAlign=middle;resizable=0;points=[];autosize=1;strokeColor=none;fillColor=none;fontSize=16;rotation=0;" parent="1" vertex="1">
          <mxGeometry x="444.5" y="428" width="71" height="31" as="geometry" />
        </mxCell>
        <mxCell id="A7aOmcGS7sVbuuhgdiNV-233" value="1, M" style="text;html=1;align=center;verticalAlign=middle;resizable=0;points=[];autosize=1;strokeColor=none;fillColor=none;fontSize=16;" parent="1" vertex="1">
          <mxGeometry x="55" y="200" width="49" height="31" as="geometry" />
        </mxCell>
        <mxCell id="A7aOmcGS7sVbuuhgdiNV-236" value="1, N" style="text;html=1;align=center;verticalAlign=middle;resizable=0;points=[];autosize=1;strokeColor=none;fillColor=none;fontSize=16;" parent="1" vertex="1">
          <mxGeometry x="-66" y="200" width="47" height="31" as="geometry" />
        </mxCell>
        <mxCell id="JgC_NQqmbrPLCzXk95Wa-1" value="REVIEWS" style="rhombus;whiteSpace=wrap;html=1;" parent="1" vertex="1">
          <mxGeometry x="554.5" y="56" width="108" height="67.5" as="geometry" />
        </mxCell>
        <mxCell id="JgC_NQqmbrPLCzXk95Wa-4" value="PassedReview" style="text;html=1;align=center;verticalAlign=middle;resizable=0;points=[];autosize=1;strokeColor=none;fillColor=none;rotation=0;" parent="1" vertex="1">
          <mxGeometry x="549" y="135" width="97" height="26" as="geometry" />
        </mxCell>
        <mxCell id="JgC_NQqmbrPLCzXk95Wa-5" value="PAY" style="rhombus;whiteSpace=wrap;html=1;" parent="1" vertex="1">
          <mxGeometry x="-208" y="235" width="76" height="55" as="geometry" />
        </mxCell>
        <mxCell id="JgC_NQqmbrPLCzXk95Wa-7" value="SALARY" style="rounded=0;whiteSpace=wrap;html=1;" parent="1" vertex="1">
          <mxGeometry x="-329" y="330" width="76" height="27" as="geometry" />
        </mxCell>
        <mxCell id="JgC_NQqmbrPLCzXk95Wa-9" value="" style="endArrow=none;html=1;rounded=0;entryX=0.291;entryY=0.915;entryDx=0;entryDy=0;exitX=1;exitY=0.5;exitDx=0;exitDy=0;shape=link;entryPerimeter=0;" parent="1" source="JgC_NQqmbrPLCzXk95Wa-5" target="A7aOmcGS7sVbuuhgdiNV-1" edge="1">
          <mxGeometry width="50" height="50" relative="1" as="geometry">
            <mxPoint x="-207" y="333" as="sourcePoint" />
            <mxPoint x="79" y="226" as="targetPoint" />
          </mxGeometry>
        </mxCell>
        <mxCell id="JgC_NQqmbrPLCzXk95Wa-10" value="" style="endArrow=none;html=1;rounded=0;exitX=0;exitY=0.5;exitDx=0;exitDy=0;entryX=0.5;entryY=0;entryDx=0;entryDy=0;shape=link;" parent="1" source="JgC_NQqmbrPLCzXk95Wa-5" target="JgC_NQqmbrPLCzXk95Wa-7" edge="1">
          <mxGeometry width="50" height="50" relative="1" as="geometry">
            <mxPoint x="-207" y="333" as="sourcePoint" />
            <mxPoint x="-157" y="283" as="targetPoint" />
          </mxGeometry>
        </mxCell>
        <mxCell id="JgC_NQqmbrPLCzXk95Wa-13" value="PayerOwner" style="text;html=1;align=center;verticalAlign=middle;resizable=0;points=[];autosize=1;strokeColor=none;fillColor=none;" parent="1" vertex="1">
          <mxGeometry x="-214" y="199" width="85" height="26" as="geometry" />
        </mxCell>
        <mxCell id="JgC_NQqmbrPLCzXk95Wa-14" value="Amount" style="text;html=1;align=center;verticalAlign=middle;resizable=0;points=[];autosize=1;strokeColor=none;fillColor=none;" parent="1" vertex="1">
          <mxGeometry x="-273" y="246" width="59" height="26" as="geometry" />
        </mxCell>
        <mxCell id="JgC_NQqmbrPLCzXk95Wa-15" value="PaidToEmployee" style="text;html=1;align=center;verticalAlign=middle;resizable=0;points=[];autosize=1;strokeColor=none;fillColor=none;" parent="1" vertex="1">
          <mxGeometry x="-211" y="322.5" width="108" height="26" as="geometry" />
        </mxCell>
        <mxCell id="JgC_NQqmbrPLCzXk95Wa-16" value="Amount" style="ellipse;whiteSpace=wrap;html=1;" parent="1" vertex="1">
          <mxGeometry x="-418" y="292" width="81" height="25.5" as="geometry" />
        </mxCell>
        <mxCell id="JgC_NQqmbrPLCzXk95Wa-17" value="&lt;u&gt;SalaryId&lt;/u&gt;" style="ellipse;whiteSpace=wrap;html=1;" parent="1" vertex="1">
          <mxGeometry x="-478" y="441.25" width="95" height="26.5" as="geometry" />
        </mxCell>
        <mxCell id="JgC_NQqmbrPLCzXk95Wa-18" value="Amount" style="ellipse;whiteSpace=wrap;html=1;" parent="1" vertex="1">
          <mxGeometry x="-369" y="249.5" width="77" height="26" as="geometry" />
        </mxCell>
        <mxCell id="JgC_NQqmbrPLCzXk95Wa-19" value="PayDate" style="ellipse;whiteSpace=wrap;html=1;" parent="1" vertex="1">
          <mxGeometry x="-360" y="431.5" width="96" height="24" as="geometry" />
        </mxCell>
        <mxCell id="JgC_NQqmbrPLCzXk95Wa-20" value="EmployeeId" style="ellipse;whiteSpace=wrap;html=1;" parent="1" vertex="1">
          <mxGeometry x="-454" y="337.5" width="90" height="30.75" as="geometry" />
        </mxCell>
        <mxCell id="JgC_NQqmbrPLCzXk95Wa-21" value="AdminId" style="ellipse;whiteSpace=wrap;html=1;" parent="1" vertex="1">
          <mxGeometry x="-431" y="392" width="84" height="25" as="geometry" />
        </mxCell>
        <mxCell id="JgC_NQqmbrPLCzXk95Wa-22" value="" style="endArrow=none;html=1;rounded=0;exitX=0.671;exitY=0.968;exitDx=0;exitDy=0;exitPerimeter=0;entryX=0.25;entryY=0;entryDx=0;entryDy=0;" parent="1" source="JgC_NQqmbrPLCzXk95Wa-18" target="JgC_NQqmbrPLCzXk95Wa-7" edge="1">
          <mxGeometry width="50" height="50" relative="1" as="geometry">
            <mxPoint x="-248" y="352" as="sourcePoint" />
            <mxPoint x="-198" y="302" as="targetPoint" />
          </mxGeometry>
        </mxCell>
        <mxCell id="JgC_NQqmbrPLCzXk95Wa-23" value="" style="endArrow=none;html=1;rounded=0;exitX=0.683;exitY=0.863;exitDx=0;exitDy=0;exitPerimeter=0;entryX=0;entryY=0.75;entryDx=0;entryDy=0;" parent="1" source="JgC_NQqmbrPLCzXk95Wa-16" target="JgC_NQqmbrPLCzXk95Wa-7" edge="1">
          <mxGeometry width="50" height="50" relative="1" as="geometry">
            <mxPoint x="-248" y="352" as="sourcePoint" />
            <mxPoint x="-198" y="302" as="targetPoint" />
          </mxGeometry>
        </mxCell>
        <mxCell id="JgC_NQqmbrPLCzXk95Wa-24" value="" style="endArrow=none;html=1;rounded=0;exitX=1;exitY=0.5;exitDx=0;exitDy=0;entryX=0;entryY=0.75;entryDx=0;entryDy=0;" parent="1" source="JgC_NQqmbrPLCzXk95Wa-20" target="JgC_NQqmbrPLCzXk95Wa-7" edge="1">
          <mxGeometry width="50" height="50" relative="1" as="geometry">
            <mxPoint x="-248" y="352" as="sourcePoint" />
            <mxPoint x="-198" y="302" as="targetPoint" />
          </mxGeometry>
        </mxCell>
        <mxCell id="JgC_NQqmbrPLCzXk95Wa-25" value="" style="endArrow=none;html=1;rounded=0;exitX=0.758;exitY=0.267;exitDx=0;exitDy=0;exitPerimeter=0;entryX=0.25;entryY=1;entryDx=0;entryDy=0;" parent="1" source="JgC_NQqmbrPLCzXk95Wa-21" target="JgC_NQqmbrPLCzXk95Wa-7" edge="1">
          <mxGeometry width="50" height="50" relative="1" as="geometry">
            <mxPoint x="-248" y="352" as="sourcePoint" />
            <mxPoint x="-198" y="302" as="targetPoint" />
          </mxGeometry>
        </mxCell>
        <mxCell id="JgC_NQqmbrPLCzXk95Wa-26" value="" style="endArrow=none;html=1;rounded=0;exitX=0.5;exitY=1;exitDx=0;exitDy=0;entryX=0.688;entryY=0.215;entryDx=0;entryDy=0;entryPerimeter=0;" parent="1" source="JgC_NQqmbrPLCzXk95Wa-7" target="JgC_NQqmbrPLCzXk95Wa-19" edge="1">
          <mxGeometry width="50" height="50" relative="1" as="geometry">
            <mxPoint x="-248" y="352" as="sourcePoint" />
            <mxPoint x="-198" y="302" as="targetPoint" />
          </mxGeometry>
        </mxCell>
        <mxCell id="JgC_NQqmbrPLCzXk95Wa-27" value="" style="endArrow=none;html=1;rounded=0;exitX=0.5;exitY=1;exitDx=0;exitDy=0;entryX=1;entryY=0;entryDx=0;entryDy=0;" parent="1" source="JgC_NQqmbrPLCzXk95Wa-7" target="JgC_NQqmbrPLCzXk95Wa-17" edge="1">
          <mxGeometry width="50" height="50" relative="1" as="geometry">
            <mxPoint x="-248" y="352" as="sourcePoint" />
            <mxPoint x="-198" y="302" as="targetPoint" />
          </mxGeometry>
        </mxCell>
        <mxCell id="JgC_NQqmbrPLCzXk95Wa-38" value="1, 1" style="text;html=1;align=center;verticalAlign=middle;resizable=0;points=[];autosize=1;strokeColor=none;fillColor=none;" parent="1" vertex="1">
          <mxGeometry x="-142" y="275" width="38" height="26" as="geometry" />
        </mxCell>
        <mxCell id="JgC_NQqmbrPLCzXk95Wa-39" value="1, 1" style="text;html=1;align=center;verticalAlign=middle;resizable=0;points=[];autosize=1;strokeColor=none;fillColor=none;" parent="1" vertex="1">
          <mxGeometry x="-214" y="280" width="38" height="26" as="geometry" />
        </mxCell>
        <mxCell id="JgC_NQqmbrPLCzXk95Wa-40" value="1, 1" style="text;html=1;align=center;verticalAlign=middle;resizable=0;points=[];autosize=1;strokeColor=none;fillColor=none;" parent="1" vertex="1">
          <mxGeometry x="-229" y="225" width="38" height="26" as="geometry" />
        </mxCell>
        <mxCell id="JgC_NQqmbrPLCzXk95Wa-41" value="1" style="text;html=1;align=center;verticalAlign=middle;resizable=0;points=[];autosize=1;strokeColor=none;fillColor=none;" parent="1" vertex="1">
          <mxGeometry x="554.5" y="109" width="25" height="26" as="geometry" />
        </mxCell>
        <mxCell id="A7aOmcGS7sVbuuhgdiNV-152" value="" style="endArrow=none;html=1;rounded=0;exitX=0.704;exitY=0.022;exitDx=0;exitDy=0;entryX=0.201;entryY=1.036;entryDx=0;entryDy=0;exitPerimeter=0;entryPerimeter=0;" parent="1" source="A7aOmcGS7sVbuuhgdiNV-151" target="A7aOmcGS7sVbuuhgdiNV-1" edge="1">
          <mxGeometry width="50" height="50" relative="1" as="geometry">
            <mxPoint x="242" y="145" as="sourcePoint" />
            <mxPoint x="292" y="95" as="targetPoint" />
          </mxGeometry>
        </mxCell>
        <mxCell id="A7aOmcGS7sVbuuhgdiNV-3" value="Username" style="ellipse;whiteSpace=wrap;html=1;" parent="1" vertex="1">
          <mxGeometry x="-132" y="-85" width="70" height="21" as="geometry" />
        </mxCell>
        <mxCell id="A7aOmcGS7sVbuuhgdiNV-5" value="Password" style="ellipse;whiteSpace=wrap;html=1;" parent="1" vertex="1">
          <mxGeometry x="-253" y="-81" width="70" height="29" as="geometry" />
        </mxCell>
        <mxCell id="A7aOmcGS7sVbuuhgdiNV-6" value="&lt;u&gt;UserId&lt;/u&gt;" style="ellipse;whiteSpace=wrap;html=1;" parent="1" vertex="1">
          <mxGeometry x="-227" y="20" width="54" height="20" as="geometry" />
        </mxCell>
        <mxCell id="A7aOmcGS7sVbuuhgdiNV-7" value="Email" style="ellipse;whiteSpace=wrap;html=1;" parent="1" vertex="1">
          <mxGeometry x="-230" y="-27" width="55" height="26" as="geometry" />
        </mxCell>
        <mxCell id="A7aOmcGS7sVbuuhgdiNV-10" value="" style="endArrow=none;html=1;rounded=0;entryX=0.363;entryY=0.967;entryDx=0;entryDy=0;exitX=0.083;exitY=0.011;exitDx=0;exitDy=0;exitPerimeter=0;entryPerimeter=0;" parent="1" source="A7aOmcGS7sVbuuhgdiNV-1" target="A7aOmcGS7sVbuuhgdiNV-3" edge="1">
          <mxGeometry width="50" height="50" relative="1" as="geometry">
            <mxPoint x="72" y="65" as="sourcePoint" />
            <mxPoint x="122" y="15" as="targetPoint" />
          </mxGeometry>
        </mxCell>
        <mxCell id="A7aOmcGS7sVbuuhgdiNV-11" value="" style="endArrow=none;html=1;rounded=0;entryX=0;entryY=0.75;entryDx=0;entryDy=0;exitX=1;exitY=0.5;exitDx=0;exitDy=0;" parent="1" source="A7aOmcGS7sVbuuhgdiNV-7" target="A7aOmcGS7sVbuuhgdiNV-1" edge="1">
          <mxGeometry width="50" height="50" relative="1" as="geometry">
            <mxPoint x="-18" y="155" as="sourcePoint" />
            <mxPoint x="32" y="105" as="targetPoint" />
          </mxGeometry>
        </mxCell>
        <mxCell id="A7aOmcGS7sVbuuhgdiNV-12" value="" style="endArrow=none;html=1;rounded=0;exitX=1;exitY=0.5;exitDx=0;exitDy=0;entryX=0.094;entryY=1.022;entryDx=0;entryDy=0;entryPerimeter=0;" parent="1" source="A7aOmcGS7sVbuuhgdiNV-6" target="A7aOmcGS7sVbuuhgdiNV-1" edge="1">
          <mxGeometry width="50" height="50" relative="1" as="geometry">
            <mxPoint x="122" y="195" as="sourcePoint" />
            <mxPoint x="172" y="145" as="targetPoint" />
          </mxGeometry>
        </mxCell>
        <mxCell id="A7aOmcGS7sVbuuhgdiNV-13" value="" style="endArrow=none;html=1;rounded=0;entryX=0.689;entryY=0.967;entryDx=0;entryDy=0;entryPerimeter=0;exitX=0;exitY=0;exitDx=0;exitDy=0;" parent="1" source="A7aOmcGS7sVbuuhgdiNV-1" target="A7aOmcGS7sVbuuhgdiNV-5" edge="1">
          <mxGeometry width="50" height="50" relative="1" as="geometry">
            <mxPoint x="172" y="65" as="sourcePoint" />
            <mxPoint x="232" y="45" as="targetPoint" />
          </mxGeometry>
        </mxCell>
        <mxCell id="A7aOmcGS7sVbuuhgdiNV-1" value="USER" style="rounded=0;whiteSpace=wrap;html=1;" parent="1" vertex="1">
          <mxGeometry x="-136" y="-31" width="154" height="30" as="geometry" />
        </mxCell>
        <mxCell id="JgC_NQqmbrPLCzXk95Wa-68" value="Name" style="ellipse;whiteSpace=wrap;html=1;" parent="1" vertex="1">
          <mxGeometry x="-206" y="-108" width="82" height="23" as="geometry" />
        </mxCell>
        <mxCell id="JgC_NQqmbrPLCzXk95Wa-69" value="FirstName" style="ellipse;whiteSpace=wrap;html=1;" parent="1" vertex="1">
          <mxGeometry x="-146" y="-143" width="84" height="25" as="geometry" />
        </mxCell>
        <mxCell id="JgC_NQqmbrPLCzXk95Wa-70" value="LastName" style="ellipse;whiteSpace=wrap;html=1;" parent="1" vertex="1">
          <mxGeometry x="-271" y="-157" width="106" height="33" as="geometry" />
        </mxCell>
        <mxCell id="JgC_NQqmbrPLCzXk95Wa-71" value="" style="endArrow=none;html=1;rounded=0;entryX=0.5;entryY=0;entryDx=0;entryDy=0;" parent="1" source="JgC_NQqmbrPLCzXk95Wa-70" target="JgC_NQqmbrPLCzXk95Wa-68" edge="1">
          <mxGeometry width="50" height="50" relative="1" as="geometry">
            <mxPoint x="36" y="-72" as="sourcePoint" />
            <mxPoint x="86" y="-122" as="targetPoint" />
          </mxGeometry>
        </mxCell>
        <mxCell id="JgC_NQqmbrPLCzXk95Wa-75" value="" style="endArrow=none;html=1;rounded=0;exitX=0.44;exitY=1.078;exitDx=0;exitDy=0;exitPerimeter=0;entryX=0.957;entryY=0.785;entryDx=0;entryDy=0;entryPerimeter=0;" parent="1" source="JgC_NQqmbrPLCzXk95Wa-69" target="JgC_NQqmbrPLCzXk95Wa-68" edge="1">
          <mxGeometry width="50" height="50" relative="1" as="geometry">
            <mxPoint x="211" y="-155" as="sourcePoint" />
            <mxPoint x="327" y="-101" as="targetPoint" />
          </mxGeometry>
        </mxCell>
        <mxCell id="JgC_NQqmbrPLCzXk95Wa-83" value="1" style="text;html=1;align=center;verticalAlign=middle;resizable=0;points=[];autosize=1;strokeColor=none;fillColor=none;" parent="1" vertex="1">
          <mxGeometry x="-111" y="-370" width="25" height="26" as="geometry" />
        </mxCell>
        <mxCell id="JgC_NQqmbrPLCzXk95Wa-84" value="N" style="text;html=1;align=center;verticalAlign=middle;resizable=0;points=[];autosize=1;strokeColor=none;fillColor=none;" parent="1" vertex="1">
          <mxGeometry x="-9" y="-370" width="27" height="26" as="geometry" />
        </mxCell>
        <mxCell id="JgC_NQqmbrPLCzXk95Wa-85" value="Supervisor" style="text;html=1;align=center;verticalAlign=middle;resizable=0;points=[];autosize=1;strokeColor=none;fillColor=none;" parent="1" vertex="1">
          <mxGeometry x="-167.75" y="-329" width="75" height="26" as="geometry" />
        </mxCell>
        <mxCell id="JgC_NQqmbrPLCzXk95Wa-86" value="Supervisee" style="text;html=1;align=center;verticalAlign=middle;resizable=0;points=[];autosize=1;strokeColor=none;fillColor=none;" parent="1" vertex="1">
          <mxGeometry y="-317" width="78" height="26" as="geometry" />
        </mxCell>
        <mxCell id="RJNLY3JE0QnFqjAxlE_g-2" value="" style="endArrow=none;html=1;rounded=0;exitX=0.5;exitY=1;exitDx=0;exitDy=0;entryX=0;entryY=0;entryDx=0;entryDy=0;" parent="1" source="JgC_NQqmbrPLCzXk95Wa-68" target="A7aOmcGS7sVbuuhgdiNV-1" edge="1">
          <mxGeometry width="50" height="50" relative="1" as="geometry">
            <mxPoint x="-44" y="-34" as="sourcePoint" />
            <mxPoint x="6" y="-84" as="targetPoint" />
          </mxGeometry>
        </mxCell>
        <mxCell id="RJNLY3JE0QnFqjAxlE_g-3" value="" style="shape=link;html=1;rounded=0;exitX=0.382;exitY=0.996;exitDx=0;exitDy=0;exitPerimeter=0;entryX=0.5;entryY=1;entryDx=0;entryDy=0;" parent="1" source="A7aOmcGS7sVbuuhgdiNV-1" target="JgC_NQqmbrPLCzXk95Wa-5" edge="1">
          <mxGeometry width="100" relative="1" as="geometry">
            <mxPoint x="-193" y="144" as="sourcePoint" />
            <mxPoint x="-93" y="144" as="targetPoint" />
            <Array as="points">
              <mxPoint x="-99" y="318" />
            </Array>
          </mxGeometry>
        </mxCell>
        <mxCell id="RJNLY3JE0QnFqjAxlE_g-5" value="DesignatedEmployee" style="text;html=1;align=center;verticalAlign=middle;resizable=0;points=[];autosize=1;strokeColor=none;fillColor=none;" parent="1" vertex="1">
          <mxGeometry x="-72" y="120" width="132" height="26" as="geometry" />
        </mxCell>
        <mxCell id="RJNLY3JE0QnFqjAxlE_g-6" value="DesignatingOwner" style="text;html=1;align=center;verticalAlign=middle;resizable=0;points=[];autosize=1;strokeColor=none;fillColor=none;" parent="1" vertex="1">
          <mxGeometry x="16" y="231" width="117" height="26" as="geometry" />
        </mxCell>
        <mxCell id="RJNLY3JE0QnFqjAxlE_g-7" value="PlacedOrder" style="text;html=1;align=center;verticalAlign=middle;resizable=0;points=[];autosize=1;strokeColor=none;fillColor=none;" parent="1" vertex="1">
          <mxGeometry x="422" y="204" width="85" height="26" as="geometry" />
        </mxCell>
        <mxCell id="RJNLY3JE0QnFqjAxlE_g-8" value="Review" style="ellipse;whiteSpace=wrap;html=1;" parent="1" vertex="1">
          <mxGeometry x="804" y="465" width="75" height="35" as="geometry" />
        </mxCell>
        <mxCell id="RJNLY3JE0QnFqjAxlE_g-9" value="" style="endArrow=none;html=1;rounded=0;entryX=0.884;entryY=0.967;entryDx=0;entryDy=0;entryPerimeter=0;exitX=0;exitY=0;exitDx=0;exitDy=0;" parent="1" source="RJNLY3JE0QnFqjAxlE_g-8" target="A7aOmcGS7sVbuuhgdiNV-58" edge="1">
          <mxGeometry width="50" height="50" relative="1" as="geometry">
            <mxPoint x="640" y="534" as="sourcePoint" />
            <mxPoint x="690" y="484" as="targetPoint" />
            <Array as="points">
              <mxPoint x="797" y="437" />
            </Array>
          </mxGeometry>
        </mxCell>
        <mxCell id="RJNLY3JE0QnFqjAxlE_g-10" value="Container" style="text;html=1;align=center;verticalAlign=middle;resizable=0;points=[];autosize=1;strokeColor=none;fillColor=none;" parent="1" vertex="1">
          <mxGeometry x="832" y="210" width="70" height="26" as="geometry" />
        </mxCell>
        <mxCell id="RJNLY3JE0QnFqjAxlE_g-11" value="Contained" style="text;html=1;align=center;verticalAlign=middle;resizable=0;points=[];autosize=1;strokeColor=none;fillColor=none;" parent="1" vertex="1">
          <mxGeometry x="937" y="113" width="73" height="26" as="geometry" />
        </mxCell>
        <mxCell id="RJNLY3JE0QnFqjAxlE_g-12" value="Included" style="text;html=1;align=center;verticalAlign=middle;resizable=0;points=[];autosize=1;strokeColor=none;fillColor=none;" parent="1" vertex="1">
          <mxGeometry x="1246" y="34" width="63" height="26" as="geometry" />
        </mxCell>
        <mxCell id="RJNLY3JE0QnFqjAxlE_g-13" value="Bonus" style="ellipse;whiteSpace=wrap;html=1;" parent="1" vertex="1">
          <mxGeometry x="-243.5" y="386.5" width="68.5" height="28.5" as="geometry" />
        </mxCell>
        <mxCell id="RJNLY3JE0QnFqjAxlE_g-14" value="" style="endArrow=none;html=1;rounded=0;exitX=0.75;exitY=1;exitDx=0;exitDy=0;entryX=0;entryY=0;entryDx=0;entryDy=0;" parent="1" source="JgC_NQqmbrPLCzXk95Wa-7" target="RJNLY3JE0QnFqjAxlE_g-13" edge="1">
          <mxGeometry width="50" height="50" relative="1" as="geometry">
            <mxPoint x="-225" y="397" as="sourcePoint" />
            <mxPoint x="-175" y="347" as="targetPoint" />
          </mxGeometry>
        </mxCell>
        <mxCell id="RJNLY3JE0QnFqjAxlE_g-15" value="" style="endArrow=none;html=1;rounded=0;exitX=1;exitY=0.5;exitDx=0;exitDy=0;entryX=0.367;entryY=0.087;entryDx=0;entryDy=0;entryPerimeter=0;" parent="1" source="A7aOmcGS7sVbuuhgdiNV-29" target="A7aOmcGS7sVbuuhgdiNV-98" edge="1">
          <mxGeometry width="50" height="50" relative="1" as="geometry">
            <mxPoint x="-12" y="285" as="sourcePoint" />
            <mxPoint x="38" y="235" as="targetPoint" />
          </mxGeometry>
        </mxCell>
        <mxCell id="RJNLY3JE0QnFqjAxlE_g-16" value="" style="endArrow=none;html=1;rounded=0;entryX=0;entryY=0.5;entryDx=0;entryDy=0;" parent="1" target="A7aOmcGS7sVbuuhgdiNV-109" edge="1">
          <mxGeometry width="50" height="50" relative="1" as="geometry">
            <mxPoint x="4" y="6" as="sourcePoint" />
            <mxPoint x="222" y="192" as="targetPoint" />
            <Array as="points">
              <mxPoint x="280" y="139" />
            </Array>
          </mxGeometry>
        </mxCell>
        <mxCell id="RJNLY3JE0QnFqjAxlE_g-17" value="" style="endArrow=none;html=1;rounded=0;exitX=0.75;exitY=1;exitDx=0;exitDy=0;entryX=0;entryY=0.5;entryDx=0;entryDy=0;" parent="1" source="A7aOmcGS7sVbuuhgdiNV-1" target="A7aOmcGS7sVbuuhgdiNV-56" edge="1">
          <mxGeometry width="50" height="50" relative="1" as="geometry">
            <mxPoint x="172" y="242" as="sourcePoint" />
            <mxPoint x="334" y="485" as="targetPoint" />
            <Array as="points">
              <mxPoint x="272" y="155" />
            </Array>
          </mxGeometry>
        </mxCell>
        <mxCell id="RJNLY3JE0QnFqjAxlE_g-18" value="" style="endArrow=none;html=1;rounded=0;exitX=0;exitY=0.5;exitDx=0;exitDy=0;entryX=0.689;entryY=0.046;entryDx=0;entryDy=0;entryPerimeter=0;" parent="1" source="A7aOmcGS7sVbuuhgdiNV-22" target="A7aOmcGS7sVbuuhgdiNV-1" edge="1">
          <mxGeometry width="50" height="50" relative="1" as="geometry">
            <mxPoint x="14" y="-106" as="sourcePoint" />
            <mxPoint x="64" y="-156" as="targetPoint" />
          </mxGeometry>
        </mxCell>
        <mxCell id="RJNLY3JE0QnFqjAxlE_g-19" value="" style="endArrow=none;html=1;rounded=0;exitX=1;exitY=0.5;exitDx=0;exitDy=0;entryX=0.831;entryY=0;entryDx=0;entryDy=0;entryPerimeter=0;" parent="1" source="A7aOmcGS7sVbuuhgdiNV-22" target="A7aOmcGS7sVbuuhgdiNV-1" edge="1">
          <mxGeometry width="50" height="50" relative="1" as="geometry">
            <mxPoint x="14" y="-106" as="sourcePoint" />
            <mxPoint x="64" y="-156" as="targetPoint" />
          </mxGeometry>
        </mxCell>
        <mxCell id="2lDnBtY3DMF0UZkWcG-L-1" value="DEPARTMENT" style="rounded=0;whiteSpace=wrap;html=1;" parent="1" vertex="1">
          <mxGeometry x="458" y="-305" width="107" height="43" as="geometry" />
        </mxCell>
        <mxCell id="2lDnBtY3DMF0UZkWcG-L-2" value="&lt;u&gt;DepartmentId&lt;/u&gt;" style="ellipse;whiteSpace=wrap;html=1;" parent="1" vertex="1">
          <mxGeometry x="381" y="-390" width="122" height="31" as="geometry" />
        </mxCell>
        <mxCell id="2lDnBtY3DMF0UZkWcG-L-3" value="DepartmentName" style="ellipse;whiteSpace=wrap;html=1;" parent="1" vertex="1">
          <mxGeometry x="529" y="-401" width="123" height="31" as="geometry" />
        </mxCell>
        <mxCell id="2lDnBtY3DMF0UZkWcG-L-4" value="Description" style="ellipse;whiteSpace=wrap;html=1;" parent="1" vertex="1">
          <mxGeometry x="620" y="-342" width="95" height="30" as="geometry" />
        </mxCell>
        <mxCell id="2lDnBtY3DMF0UZkWcG-L-5" value="" style="endArrow=none;html=1;rounded=0;exitX=0.436;exitY=1.048;exitDx=0;exitDy=0;exitPerimeter=0;entryX=0;entryY=0.25;entryDx=0;entryDy=0;" parent="1" source="2lDnBtY3DMF0UZkWcG-L-2" target="2lDnBtY3DMF0UZkWcG-L-1" edge="1">
          <mxGeometry width="50" height="50" relative="1" as="geometry">
            <mxPoint x="471" y="-192" as="sourcePoint" />
            <mxPoint x="521" y="-242" as="targetPoint" />
          </mxGeometry>
        </mxCell>
        <mxCell id="2lDnBtY3DMF0UZkWcG-L-6" value="" style="endArrow=none;html=1;rounded=0;exitX=0.266;exitY=0.892;exitDx=0;exitDy=0;exitPerimeter=0;entryX=0.5;entryY=0;entryDx=0;entryDy=0;" parent="1" source="2lDnBtY3DMF0UZkWcG-L-3" target="2lDnBtY3DMF0UZkWcG-L-1" edge="1">
          <mxGeometry width="50" height="50" relative="1" as="geometry">
            <mxPoint x="471" y="-192" as="sourcePoint" />
            <mxPoint x="521" y="-242" as="targetPoint" />
          </mxGeometry>
        </mxCell>
        <mxCell id="2lDnBtY3DMF0UZkWcG-L-7" value="" style="endArrow=none;html=1;rounded=0;exitX=0;exitY=0.5;exitDx=0;exitDy=0;entryX=0.75;entryY=0;entryDx=0;entryDy=0;" parent="1" source="2lDnBtY3DMF0UZkWcG-L-4" target="2lDnBtY3DMF0UZkWcG-L-1" edge="1">
          <mxGeometry width="50" height="50" relative="1" as="geometry">
            <mxPoint x="471" y="-192" as="sourcePoint" />
            <mxPoint x="521" y="-242" as="targetPoint" />
          </mxGeometry>
        </mxCell>
        <mxCell id="2lDnBtY3DMF0UZkWcG-L-8" value="BELONGS_TO" style="rhombus;whiteSpace=wrap;html=1;" parent="1" vertex="1">
          <mxGeometry x="236" y="-215" width="113" height="49" as="geometry" />
        </mxCell>
        <mxCell id="2lDnBtY3DMF0UZkWcG-L-9" value="" style="endArrow=none;html=1;rounded=0;exitX=0.932;exitY=0.033;exitDx=0;exitDy=0;exitPerimeter=0;entryX=0;entryY=0.5;entryDx=0;entryDy=0;shape=link;" parent="1" source="A7aOmcGS7sVbuuhgdiNV-1" target="2lDnBtY3DMF0UZkWcG-L-8" edge="1">
          <mxGeometry width="50" height="50" relative="1" as="geometry">
            <mxPoint x="83" y="-67" as="sourcePoint" />
            <mxPoint x="339" y="-160" as="targetPoint" />
          </mxGeometry>
        </mxCell>
        <mxCell id="2lDnBtY3DMF0UZkWcG-L-10" value="" style="endArrow=none;html=1;rounded=0;exitX=1;exitY=0.5;exitDx=0;exitDy=0;entryX=0;entryY=1;entryDx=0;entryDy=0;" parent="1" source="2lDnBtY3DMF0UZkWcG-L-8" target="2lDnBtY3DMF0UZkWcG-L-1" edge="1">
          <mxGeometry width="50" height="50" relative="1" as="geometry">
            <mxPoint x="289" y="-110" as="sourcePoint" />
            <mxPoint x="339" y="-160" as="targetPoint" />
          </mxGeometry>
        </mxCell>
        <mxCell id="2lDnBtY3DMF0UZkWcG-L-11" value="1, M" style="text;html=1;align=center;verticalAlign=middle;resizable=0;points=[];autosize=1;strokeColor=none;fillColor=none;" parent="1" vertex="1">
          <mxGeometry x="191" y="-229" width="41" height="26" as="geometry" />
        </mxCell>
        <mxCell id="2lDnBtY3DMF0UZkWcG-L-12" value="BelongingEmployee" style="text;html=1;align=center;verticalAlign=middle;resizable=0;points=[];autosize=1;strokeColor=none;fillColor=none;" parent="1" vertex="1">
          <mxGeometry x="187" y="-162" width="125" height="26" as="geometry" />
        </mxCell>
        <mxCell id="2lDnBtY3DMF0UZkWcG-L-13" value="1, 1" style="text;html=1;align=center;verticalAlign=middle;resizable=0;points=[];autosize=1;strokeColor=none;fillColor=none;" parent="1" vertex="1">
          <mxGeometry x="317" y="-236" width="38" height="26" as="geometry" />
        </mxCell>
        <mxCell id="2lDnBtY3DMF0UZkWcG-L-14" value="BelongingDepartment" style="text;html=1;align=center;verticalAlign=middle;resizable=0;points=[];autosize=1;strokeColor=none;fillColor=none;" parent="1" vertex="1">
          <mxGeometry x="317" y="-177" width="134" height="26" as="geometry" />
        </mxCell>
        <mxCell id="2lDnBtY3DMF0UZkWcG-L-15" value="HANDLES" style="rhombus;whiteSpace=wrap;html=1;" parent="1" vertex="1">
          <mxGeometry x="662" y="-215" width="96" height="43" as="geometry" />
        </mxCell>
        <mxCell id="2lDnBtY3DMF0UZkWcG-L-16" value="" style="endArrow=none;html=1;rounded=0;exitX=1;exitY=0.75;exitDx=0;exitDy=0;entryX=0;entryY=0.5;entryDx=0;entryDy=0;" parent="1" source="2lDnBtY3DMF0UZkWcG-L-1" target="2lDnBtY3DMF0UZkWcG-L-15" edge="1">
          <mxGeometry width="50" height="50" relative="1" as="geometry">
            <mxPoint x="812" y="-158" as="sourcePoint" />
            <mxPoint x="862" y="-208" as="targetPoint" />
          </mxGeometry>
        </mxCell>
        <mxCell id="2lDnBtY3DMF0UZkWcG-L-17" value="" style="endArrow=none;html=1;rounded=0;exitX=1;exitY=0.5;exitDx=0;exitDy=0;entryX=0;entryY=0;entryDx=0;entryDy=0;shape=link;" parent="1" source="2lDnBtY3DMF0UZkWcG-L-15" target="A7aOmcGS7sVbuuhgdiNV-36" edge="1">
          <mxGeometry width="50" height="50" relative="1" as="geometry">
            <mxPoint x="727" y="-143" as="sourcePoint" />
            <mxPoint x="777" y="-193" as="targetPoint" />
          </mxGeometry>
        </mxCell>
        <mxCell id="2lDnBtY3DMF0UZkWcG-L-18" value="1, M" style="text;html=1;align=center;verticalAlign=middle;resizable=0;points=[];autosize=1;strokeColor=none;fillColor=none;" parent="1" vertex="1">
          <mxGeometry x="635" y="-240" width="41" height="26" as="geometry" />
        </mxCell>
        <mxCell id="2lDnBtY3DMF0UZkWcG-L-19" value="1, M" style="text;html=1;align=center;verticalAlign=middle;resizable=0;points=[];autosize=1;strokeColor=none;fillColor=none;" parent="1" vertex="1">
          <mxGeometry x="750" y="-227" width="41" height="26" as="geometry" />
        </mxCell>
        <mxCell id="2lDnBtY3DMF0UZkWcG-L-20" value="Handler" style="text;html=1;align=center;verticalAlign=middle;resizable=0;points=[];autosize=1;strokeColor=none;fillColor=none;" parent="1" vertex="1">
          <mxGeometry x="613" y="-187" width="60" height="26" as="geometry" />
        </mxCell>
        <mxCell id="2lDnBtY3DMF0UZkWcG-L-21" value="Handler" style="text;html=1;align=center;verticalAlign=middle;resizable=0;points=[];autosize=1;strokeColor=none;fillColor=none;" parent="1" vertex="1">
          <mxGeometry x="710" y="-180" width="60" height="26" as="geometry" />
        </mxCell>
        <mxCell id="A7aOmcGS7sVbuuhgdiNV-60" value="PaymentStatus" style="ellipse;whiteSpace=wrap;html=1;" parent="1" vertex="1">
          <mxGeometry x="773" y="827" width="98" height="30" as="geometry" />
        </mxCell>
        <mxCell id="A7aOmcGS7sVbuuhgdiNV-61" value="Price" style="ellipse;whiteSpace=wrap;html=1;" parent="1" vertex="1">
          <mxGeometry x="866.5" y="875" width="59.5" height="20" as="geometry" />
        </mxCell>
        <mxCell id="2lDnBtY3DMF0UZkWcG-L-23" value="InvoiceId" style="ellipse;whiteSpace=wrap;html=1;" parent="1" vertex="1">
          <mxGeometry x="1005.5" y="805" width="81" height="25" as="geometry" />
        </mxCell>
        <mxCell id="2lDnBtY3DMF0UZkWcG-L-24" value="DueDate" style="ellipse;whiteSpace=wrap;html=1;" parent="1" vertex="1">
          <mxGeometry x="898" y="830" width="90" height="24" as="geometry" />
        </mxCell>
        <mxCell id="2lDnBtY3DMF0UZkWcG-L-25" value="OrderId" style="ellipse;whiteSpace=wrap;html=1;" parent="1" vertex="1">
          <mxGeometry x="977" y="754" width="64" height="30" as="geometry" />
        </mxCell>
        <mxCell id="2lDnBtY3DMF0UZkWcG-L-26" value="INVOICE" style="shape=ext;margin=3;double=1;whiteSpace=wrap;html=1;align=center;" parent="1" vertex="1">
          <mxGeometry x="871" y="760" width="76" height="40" as="geometry" />
        </mxCell>
        <mxCell id="2lDnBtY3DMF0UZkWcG-L-29" value="" style="endArrow=none;html=1;rounded=0;exitX=0;exitY=0.5;exitDx=0;exitDy=0;entryX=0.5;entryY=0;entryDx=0;entryDy=0;" parent="1" source="2lDnBtY3DMF0UZkWcG-L-26" target="A7aOmcGS7sVbuuhgdiNV-60" edge="1">
          <mxGeometry width="50" height="50" relative="1" as="geometry">
            <mxPoint x="777" y="791" as="sourcePoint" />
            <mxPoint x="827" y="741" as="targetPoint" />
          </mxGeometry>
        </mxCell>
        <mxCell id="2lDnBtY3DMF0UZkWcG-L-30" value="" style="endArrow=none;html=1;rounded=0;exitX=0.25;exitY=1;exitDx=0;exitDy=0;entryX=0.32;entryY=0.154;entryDx=0;entryDy=0;entryPerimeter=0;" parent="1" source="2lDnBtY3DMF0UZkWcG-L-26" target="A7aOmcGS7sVbuuhgdiNV-61" edge="1">
          <mxGeometry width="50" height="50" relative="1" as="geometry">
            <mxPoint x="777" y="791" as="sourcePoint" />
            <mxPoint x="827" y="741" as="targetPoint" />
          </mxGeometry>
        </mxCell>
        <mxCell id="2lDnBtY3DMF0UZkWcG-L-31" value="" style="endArrow=none;html=1;rounded=0;exitX=0.5;exitY=1;exitDx=0;exitDy=0;entryX=0.325;entryY=0.046;entryDx=0;entryDy=0;entryPerimeter=0;" parent="1" source="2lDnBtY3DMF0UZkWcG-L-26" target="2lDnBtY3DMF0UZkWcG-L-24" edge="1">
          <mxGeometry width="50" height="50" relative="1" as="geometry">
            <mxPoint x="777" y="791" as="sourcePoint" />
            <mxPoint x="939" y="824" as="targetPoint" />
          </mxGeometry>
        </mxCell>
        <mxCell id="2lDnBtY3DMF0UZkWcG-L-32" value="" style="endArrow=none;html=1;rounded=0;exitX=0;exitY=0.5;exitDx=0;exitDy=0;entryX=1;entryY=0.5;entryDx=0;entryDy=0;" parent="1" source="2lDnBtY3DMF0UZkWcG-L-25" target="2lDnBtY3DMF0UZkWcG-L-26" edge="1">
          <mxGeometry width="50" height="50" relative="1" as="geometry">
            <mxPoint x="777" y="791" as="sourcePoint" />
            <mxPoint x="827" y="741" as="targetPoint" />
          </mxGeometry>
        </mxCell>
        <mxCell id="2lDnBtY3DMF0UZkWcG-L-33" value="" style="endArrow=none;html=1;rounded=0;exitX=1;exitY=1;exitDx=0;exitDy=0;entryX=0;entryY=0;entryDx=0;entryDy=0;" parent="1" source="2lDnBtY3DMF0UZkWcG-L-26" target="2lDnBtY3DMF0UZkWcG-L-23" edge="1">
          <mxGeometry width="50" height="50" relative="1" as="geometry">
            <mxPoint x="777" y="791" as="sourcePoint" />
            <mxPoint x="827" y="741" as="targetPoint" />
          </mxGeometry>
        </mxCell>
        <mxCell id="2lDnBtY3DMF0UZkWcG-L-35" value="GENERATES" style="shape=rhombus;double=1;perimeter=rhombusPerimeter;whiteSpace=wrap;html=1;align=center;" parent="1" vertex="1">
          <mxGeometry x="793" y="605" width="120" height="60" as="geometry" />
        </mxCell>
        <mxCell id="2lDnBtY3DMF0UZkWcG-L-38" value="" style="endArrow=none;html=1;rounded=0;exitX=0.5;exitY=1;exitDx=0;exitDy=0;entryX=0.25;entryY=0;entryDx=0;entryDy=0;shape=link;" parent="1" source="2lDnBtY3DMF0UZkWcG-L-35" target="2lDnBtY3DMF0UZkWcG-L-26" edge="1">
          <mxGeometry width="50" height="50" relative="1" as="geometry">
            <mxPoint x="805" y="647" as="sourcePoint" />
            <mxPoint x="855" y="597" as="targetPoint" />
          </mxGeometry>
        </mxCell>
        <mxCell id="2lDnBtY3DMF0UZkWcG-L-39" value="" style="endArrow=none;html=1;rounded=0;exitX=0.102;exitY=0.916;exitDx=0;exitDy=0;exitPerimeter=0;entryX=0.5;entryY=0;entryDx=0;entryDy=0;" parent="1" source="A7aOmcGS7sVbuuhgdiNV-58" target="2lDnBtY3DMF0UZkWcG-L-35" edge="1">
          <mxGeometry width="50" height="50" relative="1" as="geometry">
            <mxPoint x="805" y="647" as="sourcePoint" />
            <mxPoint x="853" y="602" as="targetPoint" />
            <Array as="points">
              <mxPoint x="592" y="560" />
            </Array>
          </mxGeometry>
        </mxCell>
        <mxCell id="2lDnBtY3DMF0UZkWcG-L-40" value="" style="endArrow=none;html=1;rounded=0;exitX=0.75;exitY=1;exitDx=0;exitDy=0;entryX=0;entryY=0.5;entryDx=0;entryDy=0;shape=link;" parent="1" source="A7aOmcGS7sVbuuhgdiNV-1" target="A7aOmcGS7sVbuuhgdiNV-100" edge="1">
          <mxGeometry width="50" height="50" relative="1" as="geometry">
            <mxPoint x="170" y="337" as="sourcePoint" />
            <mxPoint x="177" y="701" as="targetPoint" />
            <Array as="points">
              <mxPoint x="236" y="210" />
            </Array>
          </mxGeometry>
        </mxCell>
        <mxCell id="2lDnBtY3DMF0UZkWcG-L-41" value="" style="endArrow=none;html=1;rounded=0;exitX=1;exitY=0.5;exitDx=0;exitDy=0;entryX=0;entryY=0.25;entryDx=0;entryDy=0;shape=link;" parent="1" source="A7aOmcGS7sVbuuhgdiNV-100" target="2lDnBtY3DMF0UZkWcG-L-26" edge="1">
          <mxGeometry width="50" height="50" relative="1" as="geometry">
            <mxPoint x="259" y="539" as="sourcePoint" />
            <mxPoint x="309" y="489" as="targetPoint" />
            <Array as="points">
              <mxPoint x="385" y="786" />
            </Array>
          </mxGeometry>
        </mxCell>
        <mxCell id="2lDnBtY3DMF0UZkWcG-L-42" value="1, 1" style="text;html=1;align=center;verticalAlign=middle;resizable=0;points=[];autosize=1;strokeColor=none;fillColor=none;" parent="1" vertex="1">
          <mxGeometry x="123" y="682" width="38" height="26" as="geometry" />
        </mxCell>
        <mxCell id="2lDnBtY3DMF0UZkWcG-L-43" value="1, M" style="text;html=1;align=center;verticalAlign=middle;resizable=0;points=[];autosize=1;strokeColor=none;fillColor=none;" parent="1" vertex="1">
          <mxGeometry x="212" y="725" width="41" height="26" as="geometry" />
        </mxCell>
        <mxCell id="-EvRj32hkBwJ2ACEEygC-1" value="1, 1" style="text;html=1;align=center;verticalAlign=middle;resizable=0;points=[];autosize=1;strokeColor=none;fillColor=none;" vertex="1" parent="1">
          <mxGeometry x="660" y="87" width="38" height="26" as="geometry" />
        </mxCell>
        <mxCell id="-EvRj32hkBwJ2ACEEygC-2" value="1, 1" style="text;html=1;align=center;verticalAlign=middle;resizable=0;points=[];autosize=1;strokeColor=none;fillColor=none;" vertex="1" parent="1">
          <mxGeometry x="781" y="603" width="38" height="26" as="geometry" />
        </mxCell>
        <mxCell id="-EvRj32hkBwJ2ACEEygC-3" value="Generator" style="text;html=1;align=center;verticalAlign=middle;resizable=0;points=[];autosize=1;strokeColor=none;fillColor=none;" vertex="1" parent="1">
          <mxGeometry x="844" y="581" width="72" height="26" as="geometry" />
        </mxCell>
        <mxCell id="-EvRj32hkBwJ2ACEEygC-4" value="1, 1" style="text;html=1;align=center;verticalAlign=middle;resizable=0;points=[];autosize=1;strokeColor=none;fillColor=none;" vertex="1" parent="1">
          <mxGeometry x="858" y="655" width="38" height="26" as="geometry" />
        </mxCell>
        <mxCell id="-EvRj32hkBwJ2ACEEygC-5" value="Generated" style="text;html=1;align=center;verticalAlign=middle;resizable=0;points=[];autosize=1;strokeColor=none;fillColor=none;" vertex="1" parent="1">
          <mxGeometry x="898" y="646" width="75" height="26" as="geometry" />
        </mxCell>
        <mxCell id="-EvRj32hkBwJ2ACEEygC-6" value="1, N" style="text;html=1;align=center;verticalAlign=middle;resizable=0;points=[];autosize=1;strokeColor=none;fillColor=none;" vertex="1" parent="1">
          <mxGeometry x="1340" y="33" width="40" height="26" as="geometry" />
        </mxCell>
        <mxCell id="-EvRj32hkBwJ2ACEEygC-8" value="Address" style="ellipse;shape=doubleEllipse;margin=3;whiteSpace=wrap;html=1;align=center;" vertex="1" parent="1">
          <mxGeometry x="-340" y="-9" width="90" height="34" as="geometry" />
        </mxCell>
        <mxCell id="-EvRj32hkBwJ2ACEEygC-9" value="" style="endArrow=none;html=1;rounded=0;exitX=1;exitY=0.5;exitDx=0;exitDy=0;entryX=0;entryY=1;entryDx=0;entryDy=0;" edge="1" parent="1" source="-EvRj32hkBwJ2ACEEygC-8" target="A7aOmcGS7sVbuuhgdiNV-1">
          <mxGeometry width="50" height="50" relative="1" as="geometry">
            <mxPoint x="-292" y="76" as="sourcePoint" />
            <mxPoint x="-242" y="26" as="targetPoint" />
          </mxGeometry>
        </mxCell>
      </root>
    </mxGraphModel>
  </diagram>
</mxfile>
